<svg xmlns="http://www.w3.org/2000/svg" xmlns:xlink="http://www.w3.org/1999/xlink" contentStyleType="text/css" data-diagram-type="DESCRIPTION" height="471px" preserveAspectRatio="none" style="width:1155px;height:471px;background:#FFFFFF;" version="1.1" viewBox="0 0 1155 471" width="1155px" zoomAndPan="magnify"><defs/><g><!--cluster LLM Router Architecture--><g class="cluster" data-entity="LLM Router Architecture" data-source-line="6" data-uid="ent0004" id="cluster_LLM Router Architecture"><rect fill="none" height="458" rx="2.5" ry="2.5" style="stroke:#181818;stroke-width:1;" width="698.93" x="450.22" y="7"/><text fill="#000000" font-family="sans-serif" font-size="14" font-weight="bold" lengthAdjust="spacing" textLength="193.3271" x="703.0214" y="21.9951">LLM Router Architecture</text></g><g class="entity" data-entity="Route" data-source-line="7" data-uid="ent0005" id="entity_Route"><ellipse cx="606.9399" cy="64.996" fill="#ADD8E6" rx="101.7799" ry="22.756" style="stroke:#181818;stroke-width:0.5;"/><text fill="#000000" font-family="sans-serif" font-size="14" lengthAdjust="spacing" textLength="167.9727" x="522.9536" y="67.8427">Route Request (callLlm)</text></g><g class="entity" data-entity="SelectModel" data-source-line="8" data-uid="ent0006" id="entity_SelectModel"><ellipse cx="606.9432" cy="147.0026" fill="#ADD8E6" rx="111.2132" ry="24.6426" style="stroke:#181818;stroke-width:0.5;"/><text fill="#000000" font-family="sans-serif" font-size="14" lengthAdjust="spacing" textLength="188.501" x="512.6927" y="149.8493">Model Selection &amp; Fallback</text></g><g class="entity" data-entity="Rank" data-source-line="9" data-uid="ent0007" id="entity_Rank"><ellipse cx="606.9401" cy="237.004" fill="#ADD8E6" rx="140.7201" ry="30.544" style="stroke:#181818;stroke-width:0.5;"/><text fill="#000000" font-family="sans-serif" font-size="14" lengthAdjust="spacing" textLength="251.1113" x="481.3844" y="239.8507">Rank Providers (Cost, Latency, etc.)</text></g><g class="entity" data-entity="Compress" data-source-line="10" data-uid="ent0008" id="entity_Compress"><ellipse cx="606.9358" cy="328.9992" fill="#ADD8E6" rx="121.5458" ry="26.7092" style="stroke:#181818;stroke-width:0.5;"/><text fill="#000000" font-family="sans-serif" font-size="14" lengthAdjust="spacing" textLength="210.6494" x="501.6111" y="331.8458">Context Window Compression</text></g><g class="entity" data-entity="Execute" data-source-line="11" data-uid="ent0009" id="entity_Execute"><ellipse cx="606.9421" cy="419.9964" fill="#ADD8E6" rx="133.5821" ry="29.1164" style="stroke:#181818;stroke-width:0.5;"/><text fill="#000000" font-family="sans-serif" font-size="14" lengthAdjust="spacing" textLength="236.127" x="488.8786" y="422.8431">Execute Request with Retry Logic</text></g><g class="entity" data-entity="HandleError" data-source-line="12" data-uid="ent0010" id="entity_HandleError"><ellipse cx="1001.8963" cy="413.9993" fill="#ADD8E6" rx="131.2463" ry="28.6493" style="stroke:#181818;stroke-width:0.5;"/><text fill="#000000" font-family="sans-serif" font-size="14" lengthAdjust="spacing" textLength="231.2051" x="886.2937" y="416.8459">Error Classification (Dev vs User)</text></g><!--entity client--><g class="entity" data-entity="client" data-source-line="3" data-uid="ent0002" id="entity_client"><ellipse cx="131.1051" cy="207.35" fill="#F1F1F1" rx="8" ry="8" style="stroke:#181818;stroke-width:0.5;"/><path d="M131.1051,215.35 L131.1051,242.35 M118.1051,223.35 L144.1051,223.35 M131.1051,242.35 L118.1051,257.35 M131.1051,242.35 L144.1051,257.35" fill="none" style="stroke:#181818;stroke-width:0.5;"/><text fill="#000000" font-family="sans-serif" font-size="14" lengthAdjust="spacing" textLength="40.5303" x="110.84" y="271.8451">Client</text></g><!--entity provider--><g class="entity" data-entity="provider" data-source-line="4" data-uid="ent0003" id="entity_provider"><ellipse cx="131.1079" cy="390.35" fill="#F1F1F1" rx="8" ry="8" style="stroke:#181818;stroke-width:0.5;"/><path d="M131.1079,398.35 L131.1079,425.35 M118.1079,406.35 L144.1079,406.35 M131.1079,425.35 L118.1079,440.35 M131.1079,425.35 L144.1079,440.35" fill="none" style="stroke:#181818;stroke-width:0.5;"/><text fill="#000000" font-family="sans-serif" font-size="14" lengthAdjust="spacing" textLength="250.2158" x="6" y="454.8451">LLM Provider (Google, OpenAI, etc.)</text></g><!--link client to Route--><g class="link" data-entity-1="client" data-entity-2="Route" data-source-line="15" data-uid="lnk11" id="link_client_Route"><path d="M151.59,227.23 C199.77,203.39 328.88,141.52 442.22,105 C471.18,95.67 497.788,88.6877 526.108,82.0577" fill="none" id="client-to-Route" style="stroke:#181818;stroke-width:1;"/><polygon fill="#181818" points="531.95,80.69,522.2752,78.8468,527.0816,81.8297,524.0987,86.6362,531.95,80.69" style="stroke:#181818;stroke-width:1;"/></g><!--link client to SelectModel--><g class="link" data-entity-1="client" data-entity-2="SelectModel" data-source-line="16" data-uid="lnk12" id="link_client_SelectModel"><path d="M151.86,233.25 C214.04,221.44 402.3954,185.6598 515.6754,164.1398" fill="none" id="client-to-SelectModel" style="stroke:#181818;stroke-width:1;"/><polygon fill="#181818" points="521.57,163.02,511.9816,160.77,516.6579,163.9532,513.4747,168.6294,521.57,163.02" style="stroke:#181818;stroke-width:1;"/></g><!--link client to Rank--><g class="link" data-entity-1="client" data-entity-2="Rank" data-source-line="17" data-uid="lnk13" id="link_client_Rank"><path d="M151.86,237 C204.72,237 346.99,237 459.85,237" fill="none" id="client-to-Rank" style="stroke:#181818;stroke-width:1;"/><polygon fill="#181818" points="465.85,237,456.85,233,460.85,237,456.85,241,465.85,237" style="stroke:#181818;stroke-width:1;"/></g><!--link client to Compress--><g class="link" data-entity-1="client" data-entity-2="Compress" data-source-line="18" data-uid="lnk14" id="link_client_Compress"><path d="M151.86,240.84 C212.82,252.67 394.79,288.0066 508.89,310.1566" fill="none" id="client-to-Compress" style="stroke:#181818;stroke-width:1;"/><polygon fill="#181818" points="514.78,311.3,506.7072,305.6582,509.8716,310.3471,505.1827,313.5116,514.78,311.3" style="stroke:#181818;stroke-width:1;"/></g><!--link client to Execute--><g class="link" data-entity-1="client" data-entity-2="Execute" data-source-line="19" data-uid="lnk15" id="link_client_Execute"><path d="M151.69,246.69 C200.1,270.4 329.69,332.38 442.22,373 C467.11,381.99 488.8396,388.7862 514.0796,395.9762" fill="none" id="client-to-Execute" style="stroke:#181818;stroke-width:1;"/><polygon fill="#181818" points="519.85,397.62,512.2902,391.3073,515.0413,396.2502,510.0985,399.0013,519.85,397.62" style="stroke:#181818;stroke-width:1;"/></g><!--link provider to Execute--><g class="link" data-entity-1="provider" data-entity-2="Execute" data-source-line="20" data-uid="lnk16" id="link_provider_Execute"><path d="M256.6,420 C323.23,420 399.3,420 467.15,420" fill="none" id="provider-to-Execute" style="stroke:#181818;stroke-width:1;"/><polygon fill="#181818" points="473.15,420,464.15,416,468.15,420,464.15,424,473.15,420" style="stroke:#181818;stroke-width:1;"/><text fill="#000000" font-family="sans-serif" font-size="13" lengthAdjust="spacing" textLength="146.1104" x="287.22" y="416.0669">API Responses / Errors</text></g><!--link Execute to HandleError--><g class="link" data-entity-1="Execute" data-entity-2="HandleError" data-source-line="21" data-uid="lnk17" id="link_Execute_HandleError"><path d="M740.7,417.97 C782.58,417.33 822.7807,416.7221 864.4907,416.0821" fill="none" id="Execute-to-HandleError" style="stroke:#181818;stroke-width:1;"/><polygon fill="#181818" points="870.49,415.99,861.4297,412.1286,865.4906,416.0667,861.5524,420.1276,870.49,415.99" style="stroke:#181818;stroke-width:1;"/><text fill="#000000" font-family="sans-serif" font-size="13" lengthAdjust="spacing" textLength="61.1851" x="778.66" y="413.0669">&#171;extend&#187;</text></g><!--SRC=[RPBTIWCn48NlynI72bAXrJkH8eLbMxMmnL8HhsDsseQcIKtIFyHtDqsw4c7lCZFVcSoPHD72mnjOkLnvrDAIyD9enhZmng9JAadQTy0TH3msXQgQOcRDNjPaqNqsPgceXzSjwMBI0tbnUnDLsml3sBarrm5BuhdP-I0jh5X97qexInryCs3dI70Ng4XWJbyxSXvTmPMgr2QrJRMhOZHw6D_degcfIU6DL3A2Qpm5tISNwwXBXGIrgETSh_ziENHButmF5VUanIct5S6M1gNHdeuU7rBNve3IRBQMd0kJH5aJjqd7HnAvuOFqgn1uUq9bbbB41WtKfhSsF4ofUBXk8GMFzhiZscFlyEx8fibVkAuL9RZfyiDOUbtq-yEqspoHBUqV5tQGnusvF7UPbpNV84zYW68s2HRTrcX73dU8OpdM06SudtU0nyUmNTBrS8XV]--></g></svg>